<svg width="504" height="312" viewBox="0 0 504 312" fill="none" xmlns="http://www.w3.org/2000/svg">
<rect width="504" height="312" fill="white"/>
<mask id="mask0" mask-type="alpha" maskUnits="userSpaceOnUse" x="51" y="2" width="402" height="308">
<g opacity="0.5">
<path fill-rule="evenodd" clip-rule="evenodd" d="M290.689 31.0497C234.57 21.8429 109.18 -34.3641 59.5547 43.9804C36.3023 101.417 69.8436 104.388 95.9543 202.44C111.456 267.087 145.646 301.439 233.25 309.215C455.994 307.249 459.843 163.472 449.016 123.545C427.844 56.016 361.789 42.7142 290.689 31.0497Z" fill="#C8C8C8"/>
<path fill-rule="evenodd" clip-rule="evenodd" d="M290.689 31.0497C234.57 21.8429 109.18 -34.3641 59.5547 43.9804C36.3023 101.417 69.8436 104.388 95.9543 202.44C111.456 267.087 145.646 301.439 233.25 309.215C455.994 307.249 459.843 163.472 449.016 123.545C427.844 56.016 361.789 42.7142 290.689 31.0497Z" fill="white" fill-opacity="0.6"/>
</g>
</mask>
<g mask="url(#mask0)">
<path d="M91.3458 290.063V127.894H89.0211V124.848H92.7348V120.932H96.4821V111.614H101.092V101.966H102.235V111.614H104.276L107.863 115.201H115.381V120.932H140.161V124.848H143.385V127.894H141.594V240.802H182.338V122.945H188.416V112.34H193.466V106.705H195.076V102.387H198.369V86.8361H199.613V102.387H203.016V106.705H204.595V112.34H209.735V122.945H214.797V210.507H267.185V99.1834H273.736V65.039H284.872V44.5859H286.811V65.039H289.809V50.9334H291.924V65.039H308.675V85.3159H311.672V99.1834H320.312V152.025H323.33V164.685V290.063H91.3458Z" fill="#F6F6F6"/>
<path fill-rule="evenodd" clip-rule="evenodd" d="M82.9091 172.279V260.939V291.396H444.892V162.705H420.581V171.149H395.574V172.848H398.654V191.964H394.087L389.582 213.204V141.752H387.407V115.412H378.312V105.19H373.369V96.7867H371.985V82.3535H370.601V96.7867H369.316V105.19H364.108V115.412H354.885V141.752H353.497V156.756L316.531 231.068H310.593V211.725H289.596V149.716H293.874V148.234H289.596V146.511H285.067V142.548H244.996V146.511C244.996 146.759 241.512 146.615 239.77 146.511V148.234H235.587V149.716H239.77V200.484H233.455V191.068H169.553V169.967V153.595H164.725V148.908H161.087V135.825H159.968V148.908H158.289V132.677H157.309V148.908H155.35V153.595H154.223V217.685H152.292V260.939H124.127V182.758H125.762V180.225H116.528V172.279H112.278V180.225H108.193V172.279H104.515V180.225H96.017V172.279H82.9091ZM248.073 153.454H246.652V160.348H248.073V153.454ZM243.905 153.454H242.484V160.348H243.905V153.454ZM250.819 153.454H252.241V160.348H250.819V153.454ZM256.408 153.454H254.987V160.348H256.408V153.454ZM259.155 153.454H260.576V160.348H259.155V153.454ZM264.744 153.454H263.323V160.348H264.744V153.454ZM267.491 153.454H268.912V160.348H267.491V153.454ZM273.079 153.454H271.658V160.348H273.079V153.454ZM275.826 153.454H277.247V160.348H275.826V153.454ZM285.583 153.454H284.162V160.348H285.583V153.454ZM248.073 162.944H246.652V169.838H248.073V162.944ZM243.905 162.944H242.484V169.838H243.905V162.944ZM250.82 162.944H252.241V169.838H250.82V162.944ZM256.408 162.944H254.987V169.838H256.408V162.944ZM263.323 162.944H264.744V169.838H263.323V162.944ZM268.912 162.944H267.491V169.838H268.912V162.944ZM271.658 162.944H273.079V169.838H271.658V162.944ZM277.247 162.944H275.826V169.838H277.247V162.944ZM279.994 162.944H281.415V169.838H279.994V162.944ZM285.583 162.944H284.162V169.838H285.583V162.944ZM242.484 172.435H243.905V179.328H242.484V172.435ZM246.652 172.435H248.073V179.328H246.652V172.435ZM252.241 172.435H250.82V179.328H252.241V172.435ZM254.987 172.435H256.408V179.328H254.987V172.435ZM260.576 172.435H259.155V179.328H260.576V172.435ZM263.323 172.435H264.744V179.328H263.323V172.435ZM268.912 172.435H267.491V179.328H268.912V172.435ZM275.826 172.435H277.247V179.328H275.826V172.435ZM281.415 172.435H279.994V179.328H281.415V172.435ZM284.162 172.435H285.583V179.328H284.162V172.435ZM243.905 181.925H242.484V188.818H243.905V181.925ZM252.241 181.925H250.82V188.819H252.241V181.925ZM254.987 181.925H256.408V188.819H254.987V181.925ZM260.576 181.925H259.155V188.819H260.576V181.925ZM267.491 181.925H268.912V188.819H267.491V181.925ZM273.079 181.925H271.658V188.819H273.079V181.925ZM279.994 181.925H281.415V188.819H279.994V181.925ZM285.583 181.925H284.162V188.819H285.583V181.925ZM263.323 191.415H264.744V198.309H263.323V191.415ZM267.491 191.415H268.912V198.309H267.491V191.415ZM273.08 191.415H271.659V198.309H273.08V191.415ZM275.826 191.415H277.247V198.309H275.826V191.415ZM281.415 191.415H279.994V198.309H281.415V191.415ZM284.162 191.415H285.583V198.309H284.162V191.415ZM411.031 177.856H408.861V186.875H411.031V177.856ZM403.891 177.856H401.721V186.875H403.891V177.856ZM415.567 177.856H417.737V186.875H415.567V177.856Z" fill="#F6F6F6"/>
<path fill-rule="evenodd" clip-rule="evenodd" d="M82.7159 255.552H108.991V203.216H118.479V200.276H128.281V203.216H133.093V218.276H157.153V220.059H153.588V244.118H163.925V171.583H162.016V170.191H178.449V171.583H176.797V174.862H197.593V268.209H213.126L221.309 239.972H235.979V217.43H251.27V207.282H249.02V206.332H252.519V190.86H253.201V206.332H255.392V203.176H256.56V206.332H264.008V207.282H261.574V217.43H265.03V246.686H287.976V212.277H310.524V268.209H316.63V162.582H320.967V164.855L365.587 153.423V150.464H370.204V258.017H375.694V223.857H411.679V270.273H420.545V160.492H417.987V159.283H416.172V156.375H423.432V152.872H421.996V151.724H437.109V152.872H435.656V156.375H465.15V291.574H82.7159V255.552ZM115.61 206.727H117.887V209.004H115.61V206.727ZM112.235 206.727H114.512V209.004H112.235V206.727ZM121.261 206.727H118.984V209.004H121.261V206.727ZM112.235 210.651H114.512V212.928H112.235V210.651ZM117.887 210.651H115.61V212.928H117.887V210.651ZM112.235 214.574H114.512V216.851H112.235V214.574ZM326.436 170.183H323.266V177.612H326.436V170.183ZM338.662 170.183H335.492V177.612H338.662V170.183ZM347.719 170.183H350.888V177.612H347.719V170.183ZM363.115 170.183H359.945V177.612H363.115V170.183ZM323.265 183.925H326.435V191.354H323.265V183.925ZM338.662 183.925H335.492V191.354H338.662V183.925ZM347.719 183.925H350.888V191.354H347.719V183.925ZM363.115 183.925H359.945V191.354H363.115V183.925ZM323.265 197.666H326.435V205.095H323.265V197.666ZM338.662 197.666H335.492V205.095H338.662V197.666ZM347.719 197.666H350.888V205.095H347.719V197.666ZM363.115 197.666H359.945V205.095H363.115V197.666ZM323.265 211.408H326.435V218.837H323.265V211.408ZM338.662 211.408H335.492V218.837H338.662V211.408ZM347.719 211.408H350.888V218.837H347.719V211.408ZM363.115 211.408H359.945V218.837H363.115V211.408ZM323.265 225.149H326.435V232.578H323.265V225.149ZM338.662 225.149H335.492V232.578H338.662V225.149ZM347.719 225.149H350.888V232.578H347.719V225.149ZM363.115 225.149H359.945V232.578H363.115V225.149ZM323.265 238.891H326.435V246.32H323.265V238.891ZM338.662 238.891H335.492V246.32H338.662V238.891ZM347.719 238.891H350.888V246.32H347.719V238.891ZM363.115 238.891H359.945V246.32H363.115V238.891ZM435.546 164.476H433.613V172.812H435.546V164.476ZM426.203 164.477H424.269V172.812H426.203V164.477ZM442.957 164.476H444.89V172.812H442.957V164.476ZM454.87 164.476H452.937V172.812H454.87V164.476ZM424.269 180.771H426.203V189.107H424.269V180.771ZM435.546 180.771H433.613V189.107H435.546V180.771ZM442.957 180.771H444.89V189.107H442.957V180.771ZM454.87 180.771H452.937V189.107H454.87V180.771ZM424.269 197.066H426.203V205.402H424.269V197.066ZM435.546 197.066H433.613V205.402H435.546V197.066ZM442.957 197.066H444.89V205.402H442.957V197.066ZM426.203 213.361H424.269V221.697H426.203V213.361ZM433.613 213.361H435.546V221.697H433.613V213.361ZM444.89 213.361H442.957V221.697H444.89V213.361ZM452.3 213.361H454.233V221.697H452.3V213.361ZM426.203 229.656H424.269V237.992H426.203V229.656ZM433.613 229.656H435.546V237.992H433.613V229.656ZM444.89 229.656H442.957V237.992H444.89V229.656ZM452.3 229.656H454.233V237.992H452.3V229.656ZM426.203 245.952H424.269V254.288H426.203V245.952ZM433.613 245.952H435.546V254.288H433.613V245.952ZM444.89 245.952H442.957V254.288H444.89V245.952ZM452.3 245.952H454.233V254.288H452.3V245.952Z" fill="#E8E8E8"/>
</g>
<ellipse cx="271.316" cy="296.162" rx="83.9584" ry="0.99802" fill="#EDEDED"/>
<g clip-path="url(#clip0)">
<path fill-rule="evenodd" clip-rule="evenodd" d="M176.047 308.331C173.515 309.571 170.545 310.285 167.369 310.285C162.225 310.285 157.622 308.412 154.544 305.464C153.548 306.084 152.441 306.43 151.274 306.43C150.316 306.43 149.398 306.197 148.549 305.771C145.472 308.665 140.912 310.498 135.823 310.498C129.582 310.498 124.138 307.742 121.248 303.654C119.532 304.68 117.409 305.286 115.112 305.286C109.405 305.286 104.778 301.544 104.778 296.929C104.778 292.313 109.405 288.571 115.112 288.571C117.409 288.571 119.532 289.178 121.248 290.204C124.138 286.115 129.583 283.36 135.823 283.36C140.093 283.36 143.99 284.65 146.952 286.775C148.192 285.663 149.677 285.017 151.274 285.017C152.939 285.017 154.484 285.721 155.756 286.923C158.771 284.584 162.862 283.146 167.369 283.146C172.462 283.146 177.025 284.982 180.102 287.879C180.715 287.714 181.358 287.627 182.02 287.627C184.452 287.627 186.626 288.807 188.064 290.659C188.335 290.647 188.607 290.641 188.88 290.641C196.999 290.641 203.58 295.964 203.58 302.53C203.58 309.096 196.999 314.419 188.88 314.419C183.367 314.419 178.562 311.963 176.047 308.331Z" fill="#C4C4C4"/>
<mask id="mask1" mask-type="alpha" maskUnits="userSpaceOnUse" x="104" y="283" width="100" height="32">
<path fill-rule="evenodd" clip-rule="evenodd" d="M176.047 308.331C173.515 309.571 170.545 310.285 167.369 310.285C162.225 310.285 157.622 308.412 154.544 305.464C153.548 306.084 152.441 306.43 151.274 306.43C150.316 306.43 149.398 306.197 148.549 305.771C145.472 308.665 140.912 310.498 135.823 310.498C129.582 310.498 124.138 307.742 121.248 303.654C119.532 304.68 117.409 305.286 115.112 305.286C109.405 305.286 104.778 301.544 104.778 296.929C104.778 292.313 109.405 288.571 115.112 288.571C117.409 288.571 119.532 289.178 121.248 290.204C124.138 286.115 129.583 283.36 135.823 283.36C140.093 283.36 143.99 284.65 146.952 286.775C148.192 285.663 149.677 285.017 151.274 285.017C152.939 285.017 154.484 285.721 155.756 286.923C158.771 284.584 162.862 283.146 167.369 283.146C172.462 283.146 177.025 284.982 180.102 287.879C180.715 287.714 181.358 287.627 182.02 287.627C184.452 287.627 186.626 288.807 188.064 290.659C188.335 290.647 188.607 290.641 188.88 290.641C196.999 290.641 203.58 295.964 203.58 302.53C203.58 309.096 196.999 314.419 188.88 314.419C183.367 314.419 178.562 311.963 176.047 308.331Z" fill="#C4C4C4"/>
</mask>
<g mask="url(#mask1)">
<path opacity="0.03" d="M147.056 291.44C146.758 289.471 143.45 285.87 141.833 284.315L150.786 284.651C149.705 285.907 147.444 289.023 147.056 291.44Z" fill="black"/>
<path opacity="0.03" d="M156.006 288.761C155.796 287.373 154.085 286 153.255 285.487L155.253 284.636L165.469 283.162C162.98 284.297 157.604 287.006 156.006 288.761Z" fill="black"/>
<path opacity="0.03" d="M121.428 294.399C121.428 291.839 123.807 287.814 124.997 286.121L116.24 287.225C117.467 288.022 120.221 290.573 121.428 294.399Z" fill="black"/>
</g>
</g>
<g clip-path="url(#clip1)">
<path fill-rule="evenodd" clip-rule="evenodd" d="M321.638 308.331C319.106 309.571 316.136 310.285 312.96 310.285C307.816 310.285 303.213 308.412 300.135 305.464C299.139 306.084 298.032 306.43 296.865 306.43C295.907 306.43 294.989 306.197 294.14 305.771C291.064 308.665 286.503 310.498 281.414 310.498C275.174 310.498 269.729 307.742 266.839 303.654C265.123 304.68 263 305.286 260.703 305.286C254.996 305.286 250.37 301.544 250.37 296.929C250.37 292.313 254.996 288.571 260.703 288.571C263 288.571 265.123 289.178 266.839 290.204C269.729 286.115 275.174 283.36 281.414 283.36C285.684 283.36 289.581 284.65 292.543 286.775C293.783 285.663 295.268 285.017 296.865 285.017C298.531 285.017 300.075 285.721 301.347 286.923C304.362 284.584 308.454 283.146 312.96 283.146C318.053 283.146 322.616 284.982 325.693 287.879C326.307 287.714 326.949 287.627 327.611 287.627C330.043 287.627 332.217 288.807 333.656 290.659C333.926 290.647 334.198 290.641 334.472 290.641C342.59 290.641 349.171 295.964 349.171 302.53C349.171 309.096 342.59 314.419 334.472 314.419C328.958 314.419 324.153 311.963 321.638 308.331Z" fill="#C4C4C4"/>
<mask id="mask2" mask-type="alpha" maskUnits="userSpaceOnUse" x="250" y="283" width="100" height="32">
<path fill-rule="evenodd" clip-rule="evenodd" d="M321.638 308.331C319.106 309.571 316.136 310.285 312.96 310.285C307.816 310.285 303.213 308.412 300.135 305.464C299.139 306.084 298.032 306.43 296.865 306.43C295.907 306.43 294.989 306.197 294.14 305.771C291.064 308.665 286.503 310.498 281.414 310.498C275.174 310.498 269.729 307.742 266.839 303.654C265.123 304.68 263 305.286 260.703 305.286C254.996 305.286 250.37 301.544 250.37 296.929C250.37 292.313 254.996 288.571 260.703 288.571C263 288.571 265.123 289.178 266.839 290.204C269.729 286.115 275.174 283.36 281.414 283.36C285.684 283.36 289.581 284.65 292.543 286.775C293.783 285.663 295.268 285.017 296.865 285.017C298.531 285.017 300.075 285.721 301.347 286.923C304.362 284.584 308.454 283.146 312.96 283.146C318.053 283.146 322.616 284.982 325.693 287.879C326.307 287.714 326.949 287.627 327.611 287.627C330.043 287.627 332.217 288.807 333.656 290.659C333.926 290.647 334.198 290.641 334.472 290.641C342.59 290.641 349.171 295.964 349.171 302.53C349.171 309.096 342.59 314.419 334.472 314.419C328.958 314.419 324.153 311.963 321.638 308.331Z" fill="#C4C4C4"/>
</mask>
<g mask="url(#mask2)">
<path opacity="0.03" d="M292.647 291.44C292.349 289.471 289.041 285.87 287.424 284.315L296.377 284.651C295.295 285.907 293.035 289.023 292.647 291.44Z" fill="black"/>
<path opacity="0.03" d="M301.597 288.761C301.387 287.373 299.676 286 298.846 285.487L300.844 284.636L311.06 283.162C308.571 284.297 303.195 287.006 301.597 288.761Z" fill="black"/>
<path opacity="0.03" d="M267.019 294.399C267.019 291.839 269.398 287.814 270.588 286.121L261.831 287.225C263.057 288.022 265.812 290.573 267.019 294.399Z" fill="black"/>
</g>
</g>
<circle cx="183.122" cy="103.436" r="24.2586" fill="#FDAD98"/>
<circle cx="183.122" cy="103.436" r="22.6352" fill="#FF987D"/>
<circle cx="183.122" cy="103.436" r="20.3259" fill="white"/>
<path d="M181.7 104.785C180.911 103.996 180.911 102.717 181.7 101.927C182.489 101.138 183.769 101.138 184.558 101.927C185.347 102.717 185.347 103.996 184.558 104.785C183.769 105.575 182.489 105.575 181.7 104.785Z" fill="#B1290E"/>
<path fill-rule="evenodd" clip-rule="evenodd" d="M181.296 101.205L181.284 101.213L181.285 101.214C181.192 101.287 181.102 101.367 181.017 101.454C179.912 102.575 179.925 104.38 181.046 105.485C182.167 106.591 183.972 106.578 185.078 105.456C185.319 105.212 185.507 104.935 185.642 104.639L191.877 94.5276L181.774 100.903C181.607 100.987 181.447 101.087 181.296 101.205Z" fill="#E15A3F"/>
<circle cx="183.122" cy="103.436" r="1.71998" fill="#B1290E"/>
<path fill-rule="evenodd" clip-rule="evenodd" d="M183.122 86.3047C183.273 86.3047 183.394 86.4264 183.394 86.5765V89.4741C183.394 89.6242 183.273 89.7458 183.122 89.7458C182.972 89.7458 182.851 89.6242 182.851 89.4741V86.5765C182.851 86.4264 182.972 86.3047 183.122 86.3047ZM183.122 117.228C183.273 117.228 183.394 117.349 183.394 117.499V120.397C183.394 120.547 183.273 120.669 183.122 120.669C182.972 120.669 182.851 120.547 182.851 120.397V117.499C182.851 117.349 182.972 117.228 183.122 117.228ZM170.973 91.3373C171.079 91.2311 171.251 91.2311 171.357 91.3373L173.406 93.3862C173.512 93.4923 173.512 93.6644 173.406 93.7705C173.3 93.8766 173.128 93.8766 173.022 93.7705L170.973 91.7216C170.867 91.6155 170.867 91.4434 170.973 91.3373ZM192.839 113.202C192.945 113.096 193.117 113.096 193.223 113.202L195.272 115.251C195.378 115.357 195.378 115.529 195.272 115.636C195.166 115.742 194.994 115.742 194.887 115.636L192.839 113.587C192.732 113.481 192.732 113.308 192.839 113.202ZM195.272 91.7215C195.378 91.6154 195.378 91.4433 195.272 91.3371C195.166 91.231 194.994 91.231 194.888 91.3371L192.839 93.386C192.733 93.4922 192.733 93.6643 192.839 93.7704C192.945 93.8765 193.117 93.8765 193.223 93.7704L195.272 91.7215ZM173.407 113.587C173.513 113.481 173.513 113.309 173.407 113.203C173.3 113.096 173.128 113.096 173.022 113.203L170.973 115.251C170.867 115.358 170.867 115.53 170.973 115.636C171.079 115.742 171.252 115.742 171.358 115.636L173.407 113.587ZM200.304 103.487C200.304 103.637 200.183 103.758 200.033 103.758H197.135C196.985 103.758 196.863 103.637 196.863 103.487C196.863 103.336 196.985 103.215 197.135 103.215H200.033C200.183 103.215 200.304 103.336 200.304 103.487ZM169.382 103.487C169.382 103.637 169.26 103.759 169.11 103.759H166.212C166.062 103.759 165.941 103.637 165.941 103.487C165.941 103.337 166.062 103.215 166.212 103.215H169.11C169.26 103.215 169.382 103.337 169.382 103.487Z" fill="#E15A3F"/>
<path d="M158.131 209.088V208.925C158.131 208.598 158.403 208.325 158.73 208.325H200.418C200.745 208.325 201.017 208.598 201.017 208.925V209.088C201.017 209.415 200.745 209.688 200.418 209.688H158.73C158.349 209.688 158.131 209.415 158.131 209.088Z" fill="black"/>
<path d="M165.487 208.652C165.814 208.379 166.359 208.325 166.686 208.543L184.341 219.932C184.723 220.15 184.777 220.586 184.45 220.858C184.123 221.131 183.578 221.185 183.251 220.967L165.596 209.578C165.214 209.36 165.16 208.924 165.487 208.652Z" fill="black"/>
<path d="M136.498 201.84V165.929C136.498 162.441 139.331 159.607 142.819 159.607H187.013C190.5 159.607 193.334 162.441 193.334 165.929V201.84C193.334 205.327 190.5 208.161 187.013 208.161H142.819C139.331 208.106 136.498 205.327 136.498 201.84Z" fill="#D63616"/>
<path d="M139.659 201.84V165.929C139.659 162.441 142.492 159.607 145.98 159.607H190.174C193.661 159.607 196.495 162.441 196.495 165.929V201.84C196.495 205.327 193.661 208.161 190.174 208.161H145.98C142.492 208.106 139.659 205.327 139.659 201.84Z" fill="#EE4D2D"/>
<path d="M142.6 163.967V163.477C142.6 162.932 143.036 162.496 143.581 162.496H190.01C190.555 162.496 190.99 162.932 190.99 163.477V163.967C190.99 164.512 190.555 164.948 190.01 164.948H143.527C143.036 164.948 142.6 164.512 142.6 163.967Z" fill="white"/>
<path d="M146.743 185.001C146.143 184.783 145.871 184.511 145.925 184.184C145.98 183.802 146.416 183.475 146.961 183.475C147.397 183.475 147.778 183.584 148.105 183.802C148.214 183.857 148.268 183.857 148.323 183.748C148.323 183.748 148.377 183.693 148.432 183.639C148.486 183.53 148.541 183.53 148.541 183.53C148.595 183.421 148.595 183.421 148.541 183.312C148.486 183.257 148.268 183.148 148.159 183.094C147.832 182.93 147.451 182.876 147.07 182.876C146.198 182.876 145.489 183.421 145.326 184.129C145.217 184.62 145.435 185.056 145.925 185.328C146.089 185.383 146.634 185.601 146.852 185.71C147.56 185.928 147.887 186.309 147.723 186.745C147.614 187.126 147.124 187.399 146.47 187.453C146.034 187.453 145.598 187.29 145.217 187.017C145.217 187.017 145.217 187.017 145.162 187.017C145.162 187.017 145.162 187.017 145.108 187.017C145.053 186.963 144.944 186.963 144.89 187.072C144.89 187.072 144.835 187.126 144.781 187.235C144.726 187.29 144.672 187.344 144.672 187.399C144.617 187.453 144.617 187.508 144.672 187.562C144.835 187.671 144.999 187.835 145.108 187.889C145.489 188.053 145.871 188.162 146.307 188.162C146.579 188.162 146.961 188.107 147.233 187.998C147.723 187.78 148.105 187.399 148.268 186.854C148.541 185.928 148.05 185.437 146.743 185.001Z" fill="white"/>
<path d="M150.666 184.838C150.339 184.838 149.958 184.947 149.685 185.11L150.012 182.985C150.012 182.876 150.012 182.876 149.903 182.876H149.522C149.413 182.876 149.413 182.93 149.413 182.985L148.705 187.889C148.705 187.944 148.705 187.998 148.814 187.998H149.195C149.304 187.998 149.304 187.944 149.304 187.889L149.522 186.309C149.576 185.819 150.067 185.437 150.612 185.437C151.102 185.437 151.484 185.819 151.429 186.309L151.211 187.889C151.211 187.998 151.211 187.998 151.32 187.998H151.702C151.811 187.998 151.811 187.998 151.811 187.889L152.029 186.309C152.138 185.492 151.538 184.838 150.666 184.838Z" fill="white"/>
<path d="M154.372 184.838C153.446 184.838 152.574 185.546 152.465 186.418C152.356 187.29 153.01 187.999 153.936 187.999C154.863 187.999 155.735 187.29 155.844 186.418C155.953 185.546 155.299 184.838 154.372 184.838ZM154.045 187.454C153.446 187.454 153.065 187.018 153.119 186.418C153.174 185.819 153.773 185.383 154.318 185.383C154.917 185.383 155.299 185.819 155.244 186.418C155.19 187.018 154.645 187.454 154.045 187.454Z" fill="white"/>
<path d="M166.797 186.636C166.906 186.636 167.015 186.527 167.015 186.418C167.124 185.546 166.525 184.838 165.653 184.838C164.781 184.838 163.964 185.546 163.8 186.418C163.8 186.473 163.8 186.527 163.8 186.636C163.8 186.963 163.909 187.236 164.073 187.508C164.29 187.781 164.563 187.944 164.944 187.999H164.999C164.999 187.999 164.999 187.999 165.053 187.999C165.544 188.053 165.98 187.998 166.361 187.835C166.47 187.781 166.525 187.726 166.634 187.672L166.688 187.617C166.797 187.508 166.797 187.508 166.743 187.399C166.634 187.181 166.579 187.127 166.579 187.127C166.525 187.072 166.47 187.072 166.416 187.127C166.416 187.127 166.416 187.127 166.361 187.127C165.925 187.454 165.435 187.508 165.053 187.399C164.944 187.399 164.89 187.345 164.835 187.29C164.563 187.127 164.399 186.909 164.399 186.582L166.797 186.636C166.743 186.636 166.797 186.636 166.797 186.636ZM164.508 186.037C164.672 185.655 165.108 185.383 165.544 185.383C165.98 185.383 166.307 185.655 166.416 186.037H164.508Z" fill="white"/>
<path d="M158.241 184.838C157.859 184.838 157.478 184.947 157.151 185.219L157.205 184.947C157.205 184.838 157.205 184.838 157.097 184.838H156.715C156.606 184.838 156.606 184.838 156.606 184.947L155.952 189.579C155.952 189.688 155.952 189.688 156.061 189.688H156.443C156.552 189.688 156.552 189.633 156.552 189.579L156.824 187.672C157.097 187.89 157.423 188.053 157.805 188.053C158.731 188.053 159.549 187.345 159.712 186.473C159.767 185.546 159.113 184.838 158.241 184.838ZM157.859 187.454C157.314 187.454 156.879 187.018 156.933 186.473V186.418C157.042 185.873 157.532 185.437 158.132 185.437C158.731 185.437 159.113 185.873 159.058 186.473C158.949 186.963 158.404 187.454 157.859 187.454Z" fill="white"/>
<path d="M163.308 186.418C163.417 185.546 162.818 184.838 161.946 184.838C161.074 184.838 160.257 185.546 160.093 186.418C160.093 186.473 160.093 186.527 160.093 186.636C160.093 186.963 160.202 187.236 160.366 187.508C160.584 187.781 160.856 187.944 161.238 187.999H161.292C161.292 187.999 161.292 187.999 161.347 187.999C161.837 188.053 162.273 187.998 162.654 187.835C162.763 187.781 162.818 187.726 162.927 187.672L162.981 187.617C163.09 187.508 163.09 187.508 163.036 187.399C162.927 187.181 162.872 187.127 162.872 187.127C162.818 187.072 162.763 187.072 162.709 187.127C162.709 187.127 162.709 187.127 162.654 187.127C162.218 187.454 161.728 187.508 161.347 187.399C161.238 187.399 161.183 187.345 161.129 187.29C160.856 187.127 160.693 186.909 160.693 186.582H163.036C163.199 186.636 163.308 186.527 163.308 186.418ZM160.856 186.037C161.02 185.655 161.456 185.383 161.892 185.383C162.327 185.383 162.654 185.655 162.763 186.037H160.856Z" fill="white"/>
<path d="M184.671 186.909C184.671 186.854 184.726 186.854 184.78 186.909C184.889 187.018 184.998 187.072 185.107 187.127C185.271 187.181 185.434 187.236 185.598 187.236C185.652 187.236 185.707 187.236 185.816 187.236C185.87 187.236 185.925 187.181 185.979 187.181C186.034 187.181 186.088 187.127 186.143 187.072C186.197 187.018 186.197 186.963 186.197 186.909C186.197 186.854 186.197 186.8 186.197 186.745C186.143 186.691 186.143 186.636 186.088 186.636C186.034 186.582 185.979 186.582 185.925 186.527C185.87 186.527 185.816 186.473 185.761 186.473C185.652 186.418 185.489 186.364 185.38 186.309C185.271 186.255 185.162 186.146 185.053 186.091C184.944 185.982 184.889 185.873 184.889 185.764C184.835 185.601 184.889 185.437 184.944 185.274C184.998 185.165 185.053 185.056 185.162 184.947C185.271 184.838 185.38 184.729 185.489 184.62C185.652 184.511 185.816 184.456 185.979 184.402C186.143 184.347 186.361 184.293 186.633 184.293C186.796 184.293 186.905 184.293 187.069 184.347C187.178 184.347 187.287 184.402 187.396 184.456C187.505 184.511 187.559 184.565 187.668 184.62C187.668 184.62 187.668 184.62 187.723 184.62C187.777 184.62 187.777 184.674 187.723 184.729L187.287 185.274C187.232 185.328 187.178 185.328 187.178 185.274C187.123 185.219 187.014 185.165 186.96 185.165C186.851 185.11 186.687 185.056 186.524 185.056C186.361 185.056 186.197 185.056 186.088 185.11C185.979 185.165 185.925 185.219 185.925 185.274C185.925 185.328 185.925 185.383 185.925 185.437C185.925 185.492 185.979 185.492 186.034 185.546C186.088 185.601 186.143 185.601 186.197 185.655C186.252 185.71 186.306 185.71 186.361 185.764L186.415 185.819C186.524 185.873 186.687 185.928 186.796 186.037C186.905 186.091 187.014 186.2 187.123 186.309C187.232 186.418 187.287 186.527 187.287 186.636C187.287 186.745 187.287 186.909 187.232 187.072C187.178 187.181 187.123 187.345 187.014 187.454C186.905 187.563 186.796 187.726 186.633 187.781C186.469 187.89 186.306 187.944 186.143 188.053C185.925 188.107 185.761 188.162 185.489 188.162C185.162 188.162 184.889 188.108 184.671 187.999C184.562 187.944 184.399 187.835 184.29 187.726C184.235 187.672 184.235 187.672 184.29 187.617L184.671 186.909Z" fill="white"/>
<path d="M177.804 185.383C177.532 186.201 176.823 186.691 175.842 186.691H175.297L174.916 187.944C174.916 187.999 174.861 187.999 174.807 187.999H173.99C173.935 187.999 173.935 187.944 173.935 187.89L175.079 184.184C175.079 184.13 175.134 184.13 175.188 184.13H176.551C177.586 184.184 178.022 184.62 177.804 185.383ZM176.769 185.438C176.878 185.111 176.66 184.893 176.224 184.893H175.842L175.515 185.983H175.842C176.333 185.983 176.66 185.765 176.769 185.438ZM184.016 186.419H182.436L182.164 187.236H183.689C183.744 187.236 183.744 187.29 183.744 187.29L183.58 187.944C183.58 187.999 183.526 187.999 183.471 187.999H181.019C180.965 187.999 180.965 187.944 180.965 187.89L182.109 184.184C182.109 184.13 182.164 184.13 182.218 184.13H184.67C184.725 184.13 184.725 184.184 184.725 184.239L184.561 184.784C184.561 184.838 184.507 184.838 184.452 184.838H182.926L182.654 185.71H184.234C184.289 185.71 184.289 185.765 184.289 185.819L184.125 186.364C184.071 186.364 184.016 186.419 184.016 186.419ZM181.292 185.383C181.128 185.983 180.638 186.364 179.929 186.528L180.638 187.944C180.638 187.999 180.638 188.053 180.583 188.053H179.602C179.548 188.053 179.548 188.053 179.493 187.999L178.839 186.582L178.404 187.999C178.404 188.053 178.349 188.053 178.295 188.053H177.477C177.423 188.053 177.423 187.999 177.423 187.944L178.567 184.239C178.567 184.184 178.621 184.184 178.676 184.184H179.984C181.074 184.184 181.564 184.566 181.292 185.383ZM180.311 185.383C180.42 185.056 180.256 184.838 179.82 184.838H179.384L179.057 185.928H179.439C179.875 185.983 180.202 185.765 180.311 185.383Z" fill="white"/>
<path d="M187.886 186.909C187.886 186.854 187.94 186.854 187.995 186.909C188.104 187.018 188.213 187.072 188.322 187.127C188.485 187.181 188.649 187.236 188.812 187.236C188.867 187.236 188.921 187.236 189.03 187.236C189.085 187.236 189.139 187.181 189.194 187.181C189.248 187.181 189.303 187.127 189.357 187.072C189.412 187.018 189.412 186.963 189.412 186.909C189.412 186.854 189.412 186.8 189.412 186.745C189.357 186.691 189.357 186.636 189.303 186.636C189.248 186.582 189.194 186.582 189.139 186.527C189.085 186.527 189.03 186.473 188.976 186.473C188.867 186.418 188.703 186.364 188.594 186.309C188.485 186.255 188.376 186.146 188.267 186.091C188.158 185.982 188.104 185.873 188.104 185.764C188.049 185.601 188.104 185.437 188.158 185.274C188.213 185.165 188.267 185.056 188.376 184.947C188.485 184.838 188.594 184.729 188.703 184.62C188.867 184.511 189.03 184.456 189.194 184.402C189.357 184.347 189.575 184.293 189.847 184.293C190.011 184.293 190.12 184.293 190.283 184.347C190.392 184.347 190.501 184.402 190.61 184.456C190.719 184.511 190.774 184.565 190.883 184.62C190.883 184.62 190.883 184.62 190.937 184.62C190.992 184.62 190.992 184.674 190.937 184.729L190.501 185.274C190.447 185.328 190.392 185.328 190.392 185.274C190.338 185.219 190.229 185.165 190.174 185.165C190.065 185.11 189.902 185.056 189.738 185.056C189.575 185.056 189.412 185.056 189.303 185.11C189.194 185.165 189.139 185.219 189.139 185.274C189.139 185.328 189.139 185.383 189.139 185.437C189.139 185.492 189.194 185.492 189.248 185.546C189.303 185.601 189.357 185.601 189.412 185.655C189.466 185.71 189.521 185.71 189.575 185.764L189.629 185.819C189.738 185.873 189.902 185.928 190.011 186.037C190.12 186.091 190.229 186.2 190.338 186.309C190.447 186.418 190.501 186.527 190.501 186.636C190.501 186.745 190.501 186.909 190.447 187.072C190.392 187.181 190.338 187.345 190.229 187.454C190.12 187.563 190.011 187.726 189.847 187.781C189.684 187.89 189.52 187.944 189.357 188.053C189.139 188.107 188.976 188.162 188.703 188.162C188.376 188.162 188.104 188.108 187.886 187.999C187.777 187.944 187.613 187.835 187.504 187.726C187.45 187.672 187.45 187.672 187.504 187.617L187.886 186.909Z" fill="white"/>
<path d="M172.518 184.729L175.025 182.276H173.335L172.082 183.53L172.518 184.729Z" fill="white"/>
<path d="M172.246 185.002L171.157 182.277H169.576L170.612 184.948L167.615 187.999H169.304L170.83 186.473L172.246 185.002Z" fill="white"/>
<path d="M172.409 185.328L171.21 186.527L171.81 187.998H173.444L172.409 185.328Z" fill="white"/>
<path d="M185.925 183.257H187.941L188.922 182.276H186.96L185.925 183.257Z" fill="white"/>
<path d="M190.883 182.276H189.358L188.377 183.257H189.903L190.883 182.276Z" fill="white"/>
<path d="M186.524 182.276H176.388L175.407 183.257H185.488L186.524 182.276Z" fill="white"/>
<path d="M191.32 182.276L190.339 183.257H191.538L192.518 182.276H191.32Z" fill="white"/>
<path d="M210.227 296.931C223.98 296.931 235.13 286.147 235.13 272.845C235.13 259.542 223.98 248.759 210.227 248.759C196.473 248.759 185.323 259.542 185.323 272.845C185.323 286.147 196.473 296.931 210.227 296.931Z" fill="black"/>
<path d="M210.227 284.67C216.968 284.67 222.433 279.375 222.433 272.845C222.433 266.314 216.968 261.02 210.227 261.02C203.485 261.02 198.02 266.314 198.02 272.845C198.02 279.375 203.485 284.67 210.227 284.67Z" fill="#D8D8D8"/>
<path d="M353.381 296.931C367.135 296.931 378.285 286.147 378.285 272.845C378.285 259.542 367.135 248.759 353.381 248.759C339.627 248.759 328.478 259.542 328.478 272.845C328.478 286.147 339.627 296.931 353.381 296.931Z" fill="black"/>
<path d="M353.381 284.67C360.123 284.67 365.588 279.375 365.588 272.845C365.588 266.314 360.123 261.02 353.381 261.02C346.64 261.02 341.175 266.314 341.175 272.845C341.175 279.375 346.64 284.67 353.381 284.67Z" fill="#D8D8D8"/>
<path d="M201.29 235.952C200.473 235.571 199.383 235.843 198.838 236.606C198.838 236.606 191.645 246.633 186.741 251.81C180.801 258.077 170.12 269.466 170.12 269.466C169.521 270.12 169.684 270.392 170.502 270.011C170.502 270.011 183.09 264.616 189.356 260.474C197.857 254.807 215.132 246.197 215.132 246.197C215.949 245.816 216.004 245.053 215.241 244.508L201.29 235.952Z" fill="#D63616"/>
<path d="M304.991 185.546C304.609 185.11 304.337 185.219 304.5 185.819L312.783 222.602C312.892 223.201 312.947 224.128 312.892 224.727C312.892 224.727 308.642 255.734 300.086 257.804C291.531 259.875 222.161 258.077 222.161 258.077C221.561 258.077 221.289 258.513 221.507 259.058L222.924 262.382C223.142 262.927 223.85 263.417 224.45 263.417L300.25 266.305C300.849 266.305 301.721 266.033 302.157 265.597C302.157 265.597 330.929 239.004 330.929 228.324C330.984 213.937 304.991 185.546 304.991 185.546Z" fill="#D63616"/>
<path d="M295.891 177.046V171.324C295.891 168.763 297.962 166.638 300.577 166.638H315.999C318.56 166.638 320.685 168.708 320.685 171.324V177.046C320.685 179.607 318.615 181.732 315.999 181.732H300.577C298.016 181.732 295.891 179.607 295.891 177.046Z" fill="#D63616"/>
<path d="M309.078 161.406C313.001 163.422 316.925 165.439 320.412 168.054C323.9 170.67 326.951 173.994 328.641 177.972C323.791 177.809 318.941 177.591 314.145 177.427C310.876 177.318 307.225 176.991 305.154 174.594C303.465 172.632 303.356 169.689 304.337 167.292C305.318 164.839 307.225 162.932 309.078 161.406Z" fill="#D63616"/>
<path d="M309.023 161.624C309.895 161.951 310.604 162.605 311.258 163.259C315.508 167.509 318.996 172.414 321.557 177.809C323.9 177.918 326.243 178.026 328.586 178.135C326.897 174.157 323.9 170.779 320.412 168.054C316.979 165.439 313.001 163.368 309.023 161.624Z" fill="#EE4D2D"/>
<path d="M291.916 178.463L291.606 176.828C291.473 176.065 291.872 175.356 292.492 175.193L301.84 172.795C302.461 172.632 303.081 173.122 303.214 173.831L303.524 175.465C303.657 176.228 303.258 176.937 302.638 177.1L293.29 179.498C292.67 179.716 292.049 179.225 291.916 178.463Z" fill="black"/>
<path d="M294.182 178.729C295.205 178.729 296.035 178.021 296.035 177.149C296.035 176.276 295.205 175.568 294.182 175.568C293.159 175.568 292.329 176.276 292.329 177.149C292.329 178.021 293.159 178.729 294.182 178.729Z" fill="#333333"/>
<path d="M243.578 226.362C244.776 226.634 246.302 227.615 246.956 228.596L267.5 257.096C268.209 258.077 267.773 258.84 266.574 258.84L223.688 258.349C222.489 258.349 220.745 257.696 219.819 256.933L179.33 223.474C178.404 222.711 178.567 221.676 179.657 221.24C179.657 221.24 198.403 213.229 212.625 217.97C227.993 223.038 243.578 226.362 243.578 226.362Z" fill="#EE4D2D"/>
<path d="M198.238 205.818C196.603 206.636 194.86 207.562 193.77 209.251C192.68 210.941 192.516 213.556 193.879 214.919C194.642 215.627 195.623 215.845 196.603 216.008C214.913 219.223 233.059 223.746 250.933 229.468C252.677 230.013 254.693 230.558 256.164 229.305C258.671 227.125 256.982 222.548 255.129 219.605C252.077 214.81 248.808 209.796 244.067 207.507C241.179 206.091 237.964 205.873 234.803 205.709C221.18 204.946 206.685 201.513 198.238 205.818Z" fill="black"/>
<path d="M237.201 257.532C236.874 249.848 231.48 242.274 222.434 236.77C219.981 235.299 217.257 233.936 214.042 233.064C210.554 232.138 206.685 231.811 202.98 231.103C199.274 230.394 195.623 229.25 193.879 227.234C192.135 225.217 193.334 222.22 196.985 221.512C198.293 221.239 199.71 221.294 201.072 221.403C215.568 222.329 229.463 227.506 235.567 235.299C239 239.712 239.872 244.617 240.253 249.467C240.416 252.573 240.307 255.951 237.201 257.532Z" fill="#D63616"/>
<path d="M303.247 183.803L317.633 178.19C317.851 178.135 318.069 178.135 318.232 178.299C321.284 180.642 348.531 201.785 366.731 227.67C367.004 228.051 366.731 228.596 366.241 228.596C362.317 228.76 348.749 228.542 346.351 228.487C346.133 228.487 345.915 228.596 345.806 228.814L313.164 283.525C313.056 283.689 312.838 283.852 312.62 283.852H238.236C238.018 283.852 237.855 283.743 237.691 283.58L223.414 263.09C223.087 262.654 223.414 262 224.014 262L301.83 262.763C302.048 262.763 302.211 262.654 302.32 262.491L330.439 225.435C330.602 225.217 330.602 224.945 330.439 224.727L302.92 184.675C302.756 184.348 302.865 183.912 303.247 183.803Z" fill="#EE4D2D"/>
<path d="M225.976 257.096L211.808 273.389C210.827 274.534 209.083 274.643 207.939 273.716L206.304 272.408C205.159 271.482 204.996 269.793 205.977 268.648L220.145 252.355C221.126 251.21 222.87 251.102 224.014 252.028L225.649 253.336C226.793 254.317 226.957 256.006 225.976 257.096Z" fill="black"/>
<path d="M337.469 252.41L332.183 243.691L345.752 227.125C345.752 227.125 373.435 229.359 390.436 247.07C390.436 247.07 343.899 243.745 337.469 252.41Z" fill="#D63616"/>
<path d="M344.934 228.379C343.517 227.289 341.501 227.561 340.411 228.923C336.924 233.446 330.33 242.983 332.074 247.778C333.927 252.846 345.752 267.505 350.71 273.499C351.855 274.916 354.035 275.025 355.397 273.717C356.487 272.682 356.65 271.047 355.833 269.848L341.283 248.432C340.684 247.56 340.575 246.525 341.011 245.544L346.623 232.411C347.168 231.158 346.787 229.686 345.697 228.869L344.934 228.379Z" fill="black"/>
<path d="M254.548 121.272C254.732 120.292 255.033 119.421 255.495 118.77C257.765 115.562 263.111 116.774 266.013 118.153C268.915 119.533 269.016 123.561 267.877 125.884C267.023 127.627 267.659 129.227 268.051 130.214C268.181 130.543 268.285 130.803 268.297 130.978C268.335 131.537 267.177 132.037 266.592 132.218L264.725 136.697C263.85 139.251 261.924 138.518 259.926 137.179C258.99 137.291 257.308 137.7 256.29 138.758C255.839 139.227 255.522 139.832 255.049 140.369C254.36 141.941 255.914 143.898 256.713 145.461L241.65 135.43C244.09 135.063 245.451 134.977 248.049 132.693C248.786 130.993 250.368 127.011 250.797 124.68C251.19 122.547 253.29 121.566 254.548 121.272Z" fill="#FFC4B5"/>
<path fill-rule="evenodd" clip-rule="evenodd" d="M259.788 137.197C258.832 137.331 257.259 137.749 256.288 138.758C256.067 138.988 255.879 139.25 255.688 139.521C254.657 138.765 253.744 137.968 253.542 137.42C253.057 136.11 254.04 129.287 254.775 131.219C255.337 132.694 258.223 135.693 259.788 137.197Z" fill="#F57A61"/>
<path d="M268.135 114.551C269.931 116.589 268.983 118.89 268.085 119.958C268.322 118.903 263.866 117.265 261.728 117.306C262.13 117.361 262.913 117.801 262.835 119.125C262.413 122.171 259.566 121.069 259.403 122.273C259.272 123.236 257.983 125.949 257.354 127.185C256.855 126.214 255.708 124.056 255.116 123.199C254.375 122.127 251.69 121.855 251.611 124.281C251.548 126.222 249.918 129.087 249.111 130.277C248.939 128.792 248.523 125.504 248.24 124.232C247.885 122.642 246.23 120.511 247.026 117.789C247.821 115.068 252.422 111.56 256.3 110.802C260.177 110.045 265.89 112.004 268.135 114.551Z" fill="black"/>
<path d="M278.763 247.13V238.268L283.342 235.897L285.384 247.362L278.763 247.13Z" fill="#F57A61"/>
<path d="M283.935 239.32L283.628 237.71L278.609 239.036L278.917 241.403L283.935 239.32Z" fill="#B1290E"/>
<path d="M278.274 239.119L265.574 206.655L270.678 203.146L285.42 237.362L278.274 239.119Z" fill="#242424"/>
<path d="M268.715 201.796L258.667 206.147L255.663 211.637L256.771 216.568C258.753 225.388 263.221 233.455 269.647 239.813L276.795 250.586L283.217 253.591L268.715 201.796Z" fill="#FA9176"/>
<path d="M285.581 246.772H277.848C276.638 250.101 276.064 253.627 276.155 257.168L276.186 258.374H299.121C300.071 258.374 300.841 257.604 300.841 256.654C300.841 254.076 298.755 251.986 296.181 251.986L287.631 251.041C287.132 250.986 286.716 250.636 286.574 250.155L285.581 246.772Z" fill="black"/>
<path d="M271.305 242.195L269.647 239.916L278.038 235.151L278.349 236.187L271.305 242.195Z" fill="#B1290E"/>
<path d="M279.902 241.678L272.858 244.682L274.619 247.375L281.56 247.582L279.902 241.678Z" fill="#FF8911"/>
<path d="M216.817 210.083C211.533 209.151 209.482 203.166 208.847 197.333C208.466 193.833 208.594 190.388 208.84 188.122C211.258 187.744 217.1 187.237 225.534 187.735C226.474 187.79 227.446 187.858 228.449 187.94C229.116 187.994 229.796 188.055 230.49 188.122C242.531 188.122 253.719 193.935 262.102 198.291C265.227 199.914 266.781 200.85 269.026 201.692C270.063 202.081 270.843 202.956 271.111 204.032L278.763 234.737L267.782 241.056L255.302 216.729C254.404 214.978 252.797 213.682 250.868 213.291C244.541 212.009 237.909 211.534 231.927 211.218C230.839 211.16 229.772 211.108 228.732 211.057C224.023 210.826 219.873 210.622 216.817 210.083Z" fill="#333333"/>
<path opacity="0.3" fill-rule="evenodd" clip-rule="evenodd" d="M208.847 197.333C209.482 203.166 211.534 209.151 216.817 210.083C219.873 210.622 224.023 210.826 228.732 211.057C229.772 211.108 230.839 211.16 231.927 211.218C238.834 211.583 246.608 212.159 253.778 213.946C251.073 211.876 244.065 207.768 235.773 206.561C227.238 205.318 214.261 199.275 208.84 196.409L208.774 196.6C208.796 196.844 208.82 197.088 208.847 197.333ZM253.965 214.123H254.005C253.983 214.106 253.961 214.088 253.938 214.07L253.965 214.123Z" fill="black"/>
<path d="M281.839 247.271H274.105C272.896 250.6 272.321 254.126 272.413 257.667L272.444 258.873H295.378C296.328 258.873 297.098 258.103 297.098 257.153C297.098 254.575 295.012 252.485 292.439 252.485L283.888 251.54C283.389 251.485 282.973 251.135 282.832 250.654L281.839 247.271Z" fill="#333333"/>
<path d="M292.437 172.683L258.68 163.038L251.658 171.601L290.982 173.592L292.437 172.683Z" fill="#F57A61"/>
<path d="M252.707 169.436L238.492 147.782L245.042 140.943L254.98 142.592L262.326 163.093L252.707 169.436Z" fill="#D63616"/>
<rect x="247.707" y="132.102" width="13.3405" height="3.93639" transform="rotate(43.553 247.707 132.102)" fill="white"/>
<path fill-rule="evenodd" clip-rule="evenodd" d="M208.965 188.102C209.161 188.073 209.376 188.043 209.612 188.012L238.302 192.285C239.367 192.762 240.411 193.277 241.433 193.823L239.306 193.572C235.245 193.095 231.132 193.321 227.149 194.242C221.394 195.571 215.361 194.963 209.987 192.511L208.614 191.884C208.633 190.783 208.69 189.765 208.767 188.879C208.832 188.615 208.898 188.356 208.965 188.102Z" fill="#242424"/>
<path d="M205.993 188.005L207.156 185.834L245.318 191.517L243.954 193.639L232.835 192.024L225.82 191.774C222.546 191.656 219.293 191.211 216.109 190.443L205.993 188.005Z" fill="white"/>
<path d="M245.766 191.944C242.445 192.7 238.283 192.041 234.839 191.228L234.839 191.228L205.857 186.799L209.032 179.996C211.322 175.088 213.241 170.015 214.774 164.821L217.48 155.648C221.993 141.116 237.519 129.204 248.138 135.615C251.25 137.254 253.08 140.049 255.508 142.08C255.278 143.223 255.452 144.128 254.445 146.49C252.885 150.149 250.351 156.05 249.108 161.209C246.571 171.733 247.336 177.952 247.04 182.894C246.825 186.486 246.662 189.209 245.766 191.944Z" fill="#EE4D2D"/>
<path fill-rule="evenodd" clip-rule="evenodd" d="M287.87 178.134L289.175 177.88C290.264 177.668 291.228 177.041 291.863 176.13L292.193 175.657C293.073 174.396 294.834 174.135 296.042 175.087L297.32 177.147L298.118 177.191C299.067 177.062 298.961 176.379 297.544 173.924C295.441 170.283 291.705 172.129 288.927 173.502C288.882 173.525 288.837 173.547 288.792 173.569L248.897 166.241L248.362 175.331L287.867 178.138L287.87 178.134Z" fill="#FDAD98"/>
<path d="M248.375 175.269L245.447 170.144L256.063 163.188L257.436 168.13L248.375 175.269Z" fill="#FDAD98"/>
<path d="M245.629 170.876L233.753 148.876L240.303 142.037L250.241 143.687L256.886 164.012L245.629 170.876Z" fill="#EE4D2D"/>
<path d="M246.809 183.565L233.958 149.353L247.157 174.165L246.809 183.565Z" fill="#D63616"/>
<defs>
<clipPath id="clip0">
<rect width="98.804" height="13.7228" fill="white" transform="translate(104.753 283.208)"/>
</clipPath>
<clipPath id="clip1">
<rect width="98.804" height="13.7228" fill="white" transform="translate(250.344 283.208)"/>
</clipPath>
</defs>
</svg>
